<svg xmlns="http://www.w3.org/2000/svg" viewBox="0 0 320 320" role="img" aria-label="Placeholder portrait">
  <defs>
    <linearGradient id="bg" x1="40" y1="28" x2="286" y2="298" gradientUnits="userSpaceOnUse">
      <stop stop-color="#F4F7F7"/>
      <stop offset=".5" stop-color="#DDF8FA"/>
      <stop offset="1" stop-color="#FFF2A5"/>
    </linearGradient>
    <linearGradient id="suit" x1="80" y1="196" x2="244" y2="292" gradientUnits="userSpaceOnUse">
      <stop stop-color="#132326"/>
      <stop offset="1" stop-color="#304C52"/>
    </linearGradient>
    <filter id="shadow" x="-20%" y="-20%" width="140%" height="150%">
      <feDropShadow dx="0" dy="18" stdDeviation="18" flood-color="#071113" flood-opacity=".18"/>
    </filter>
  </defs>
  <rect width="320" height="320" rx="42" fill="url(#bg)"/>
  <path d="M28 258c74-42 154-45 264-12" fill="none" stroke="#42D9E6" stroke-width="42" stroke-opacity=".18"/>
  <circle cx="76" cy="78" r="48" fill="#FFD43D" opacity=".25"/>
  <g filter="url(#shadow)">
    <path d="M86 276c17-57 43-84 78-84s61 27 78 84H86z" fill="url(#suit)"/>
    <path d="M109 148c-2-48 22-78 60-79 39-1 62 28 61 77-1 52-23 89-61 89-37 0-58-35-60-87z" fill="#DDA276"/>
    <path d="M111 139c11-43 40-62 88-52 11 6 21 22 30 47 5-42-17-72-58-78-45-6-71 23-60 83z" fill="#15191C"/>
    <path d="M116 200c14 24 31 36 51 36 22 0 41-14 58-43l14 83H82l34-76z" fill="#203238"/>
    <path d="M145 197c15 10 31 10 47 0-5 15-12 23-23 23s-19-8-24-23z" fill="#F0C8B1" opacity=".72"/>
    <path d="M135 275l29-54 33 54" fill="#F8FAFA"/>
    <circle cx="149" cy="154" r="4" fill="#071113"/>
    <circle cx="190" cy="154" r="4" fill="#071113"/>
    <path d="M154 186c11 7 24 7 35 0" fill="none" stroke="#875A51" stroke-width="5" stroke-linecap="round"/>
  </g>
</svg>
