<svg xmlns="http://www.w3.org/2000/svg" viewBox="0 0 96 96" role="img" aria-label="Instagram">
  <defs>
    <radialGradient id="instagramGradient" cx="25%" cy="100%" r="105%">
      <stop offset="0" stop-color="#FED576"/>
      <stop offset=".25" stop-color="#F47133"/>
      <stop offset=".5" stop-color="#BC3081"/>
      <stop offset=".75" stop-color="#4C63D2"/>
      <stop offset="1" stop-color="#4C63D2"/>
    </radialGradient>
  </defs>
  <path fill="url(#instagramGradient)" d="M26 8h44c10 0 18 8 18 18v44c0 10-8 18-18 18H26C16 88 8 80 8 70V26C8 16 16 8 26 8Z"/>
  <path fill="none" stroke="#FFFFFF" stroke-width="7" d="M30 25h36c3 0 5.4.8 7 2.4 1.8 1.7 2.7 4.2 2.7 7.6v26c0 3.4-.9 5.9-2.7 7.6C71.4 70.2 69 71 66 71H30c-3 0-5.4-.8-7-2.4-1.8-1.7-2.7-4.2-2.7-7.6V35c0-3.4.9-5.9 2.7-7.6C24.6 25.8 27 25 30 25Z"/>
  <circle cx="48" cy="48" r="13.5" fill="none" stroke="#FFFFFF" stroke-width="7"/>
  <circle cx="66.5" cy="30.5" r="4.5" fill="#FFFFFF"/>
</svg>
